# xmcd
#
# Track frame offsets:
#	150
#	28595
#	45117
#	60932
#	78382
#	97112
#	113572
#	135980
#	160190
#	178722
#	197357
#
# Disc length: 3041 seconds
#
# Revision: 14
# Processed by: cddbd v1.5.2PL0 Copyright (c) Steve Scherf et al.
# Submitted via: EasyCDDAExtractor 15.3.0.1
#
DISCID=780bdf0b
DTITLE=Shakira - MTV Unplugged
DYEAR=2000
DGENRE=Latin
TTITLE0=Octavo Dia
TTITLE1=Si Te Vas
TTITLE2=Donde Estan Los Ladrones
TTITLE3=Moscas En La Casa
TTITLE4=Ciega, Sordomuda
TTITLE5=Inevitable
TTITLE6=Estoy Aqui
TTITLE7=Tu
TTITLE8=Sombra De Ti
TTITLE9=No Creo
TTITLE10=Ojos Asi
EXTD=
EXTT0=
EXTT1=
EXTT2=
EXTT3=
EXTT4=
EXTT5=
EXTT6=
EXTT7=
EXTT8=
EXTT9=
EXTT10=
PLAYORDER=
